<mxfile host="app.diagrams.net" modified="2021-10-22T10:34:52.950Z" agent="5.0 (Windows)" etag="XTFW62CHOnInVmor8wVN" version="15.5.5" type="github">
  <diagram id="zCMMt3EqEbr-sv7_xVZM" name="Page-1">
    <mxGraphModel dx="782" dy="351" grid="1" gridSize="10" guides="1" tooltips="1" connect="1" arrows="1" fold="1" page="1" pageScale="1" pageWidth="827" pageHeight="1169" math="0" shadow="0">
      <root>
        <mxCell id="0" />
        <mxCell id="1" parent="0" />
        <mxCell id="3q1tgg9aHf6s9xLI-lMY-10" style="edgeStyle=orthogonalEdgeStyle;rounded=0;orthogonalLoop=1;jettySize=auto;html=1;exitX=1;exitY=0.5;exitDx=0;exitDy=0;entryX=0;entryY=0.25;entryDx=0;entryDy=0;" edge="1" parent="1" source="3q1tgg9aHf6s9xLI-lMY-1" target="3q1tgg9aHf6s9xLI-lMY-3">
          <mxGeometry relative="1" as="geometry" />
        </mxCell>
        <mxCell id="3q1tgg9aHf6s9xLI-lMY-1" value="Mobile Client" style="rounded=0;whiteSpace=wrap;html=1;fillColor=#f5f5f5;fontColor=#333333;strokeColor=#666666;" vertex="1" parent="1">
          <mxGeometry x="30" y="60" width="60" height="40" as="geometry" />
        </mxCell>
        <mxCell id="3q1tgg9aHf6s9xLI-lMY-11" style="edgeStyle=orthogonalEdgeStyle;rounded=0;orthogonalLoop=1;jettySize=auto;html=1;exitX=1;exitY=0.5;exitDx=0;exitDy=0;entryX=0;entryY=0.75;entryDx=0;entryDy=0;" edge="1" parent="1" source="3q1tgg9aHf6s9xLI-lMY-2" target="3q1tgg9aHf6s9xLI-lMY-3">
          <mxGeometry relative="1" as="geometry" />
        </mxCell>
        <mxCell id="3q1tgg9aHf6s9xLI-lMY-2" value="Desktop Client" style="rounded=0;whiteSpace=wrap;html=1;fillColor=#f5f5f5;fontColor=#333333;strokeColor=#666666;" vertex="1" parent="1">
          <mxGeometry x="30" y="170" width="60" height="40" as="geometry" />
        </mxCell>
        <mxCell id="3q1tgg9aHf6s9xLI-lMY-12" style="edgeStyle=orthogonalEdgeStyle;rounded=0;orthogonalLoop=1;jettySize=auto;html=1;exitX=1;exitY=0.5;exitDx=0;exitDy=0;entryX=0;entryY=0.5;entryDx=0;entryDy=0;" edge="1" parent="1" source="3q1tgg9aHf6s9xLI-lMY-3" target="3q1tgg9aHf6s9xLI-lMY-6">
          <mxGeometry relative="1" as="geometry" />
        </mxCell>
        <mxCell id="3q1tgg9aHf6s9xLI-lMY-13" style="edgeStyle=orthogonalEdgeStyle;rounded=0;orthogonalLoop=1;jettySize=auto;html=1;exitX=0.5;exitY=1;exitDx=0;exitDy=0;entryX=0.5;entryY=0;entryDx=0;entryDy=0;" edge="1" parent="1" source="3q1tgg9aHf6s9xLI-lMY-3" target="3q1tgg9aHf6s9xLI-lMY-7">
          <mxGeometry relative="1" as="geometry" />
        </mxCell>
        <mxCell id="3q1tgg9aHf6s9xLI-lMY-3" value="Instagram Server" style="rounded=0;whiteSpace=wrap;html=1;fillColor=#ffe6cc;strokeColor=#d79b00;" vertex="1" parent="1">
          <mxGeometry x="160" y="60" width="60" height="150" as="geometry" />
        </mxCell>
        <mxCell id="3q1tgg9aHf6s9xLI-lMY-17" style="edgeStyle=orthogonalEdgeStyle;rounded=0;orthogonalLoop=1;jettySize=auto;html=1;exitX=1;exitY=0.5;exitDx=0;exitDy=0;entryX=0;entryY=0.5;entryDx=0;entryDy=0;" edge="1" parent="1" source="3q1tgg9aHf6s9xLI-lMY-4" target="3q1tgg9aHf6s9xLI-lMY-9">
          <mxGeometry relative="1" as="geometry" />
        </mxCell>
        <mxCell id="3q1tgg9aHf6s9xLI-lMY-4" value="Media Counter Service" style="rounded=0;whiteSpace=wrap;html=1;fillColor=#dae8fc;strokeColor=#6c8ebf;" vertex="1" parent="1">
          <mxGeometry x="475" y="160" width="75" height="80" as="geometry" />
        </mxCell>
        <mxCell id="3q1tgg9aHf6s9xLI-lMY-16" style="edgeStyle=orthogonalEdgeStyle;rounded=0;orthogonalLoop=1;jettySize=auto;html=1;exitX=1;exitY=0.5;exitDx=0;exitDy=0;entryX=0;entryY=0.5;entryDx=0;entryDy=0;" edge="1" parent="1" source="3q1tgg9aHf6s9xLI-lMY-5" target="3q1tgg9aHf6s9xLI-lMY-8">
          <mxGeometry relative="1" as="geometry" />
        </mxCell>
        <mxCell id="3q1tgg9aHf6s9xLI-lMY-5" value="User Feed Service" style="rounded=0;whiteSpace=wrap;html=1;fillColor=#dae8fc;strokeColor=#6c8ebf;" vertex="1" parent="1">
          <mxGeometry x="475" y="30" width="70" height="70" as="geometry" />
        </mxCell>
        <mxCell id="3q1tgg9aHf6s9xLI-lMY-14" style="edgeStyle=orthogonalEdgeStyle;rounded=0;orthogonalLoop=1;jettySize=auto;html=1;exitX=1;exitY=0.25;exitDx=0;exitDy=0;entryX=0;entryY=0.5;entryDx=0;entryDy=0;" edge="1" parent="1" source="3q1tgg9aHf6s9xLI-lMY-6" target="3q1tgg9aHf6s9xLI-lMY-5">
          <mxGeometry relative="1" as="geometry" />
        </mxCell>
        <mxCell id="3q1tgg9aHf6s9xLI-lMY-15" style="edgeStyle=orthogonalEdgeStyle;rounded=0;orthogonalLoop=1;jettySize=auto;html=1;exitX=1;exitY=0.75;exitDx=0;exitDy=0;entryX=0;entryY=0.5;entryDx=0;entryDy=0;" edge="1" parent="1" source="3q1tgg9aHf6s9xLI-lMY-6" target="3q1tgg9aHf6s9xLI-lMY-4">
          <mxGeometry relative="1" as="geometry" />
        </mxCell>
        <mxCell id="3q1tgg9aHf6s9xLI-lMY-6" value="Streaming Data" style="rounded=0;whiteSpace=wrap;html=1;fillColor=#d5e8d4;strokeColor=#82b366;" vertex="1" parent="1">
          <mxGeometry x="290" y="105" width="80" height="60" as="geometry" />
        </mxCell>
        <mxCell id="3q1tgg9aHf6s9xLI-lMY-7" value="Graph Data Store" style="rounded=0;whiteSpace=wrap;html=1;fillColor=#fff2cc;strokeColor=#d6b656;" vertex="1" parent="1">
          <mxGeometry x="155" y="290" width="70" height="60" as="geometry" />
        </mxCell>
        <mxCell id="3q1tgg9aHf6s9xLI-lMY-8" value="Columnar Data Store" style="rounded=0;whiteSpace=wrap;html=1;fillColor=#fff2cc;strokeColor=#d6b656;" vertex="1" parent="1">
          <mxGeometry x="640" y="40" width="80" height="50" as="geometry" />
        </mxCell>
        <mxCell id="3q1tgg9aHf6s9xLI-lMY-9" value="Columnar Data Store" style="rounded=0;whiteSpace=wrap;html=1;fillColor=#fff2cc;strokeColor=#d6b656;" vertex="1" parent="1">
          <mxGeometry x="640" y="175" width="80" height="50" as="geometry" />
        </mxCell>
        <mxCell id="3q1tgg9aHf6s9xLI-lMY-18" value="Comments Service" style="rounded=1;whiteSpace=wrap;html=1;fillColor=#dae8fc;strokeColor=#6c8ebf;" vertex="1" parent="1">
          <mxGeometry x="320" y="490" width="120" height="60" as="geometry" />
        </mxCell>
        <mxCell id="3q1tgg9aHf6s9xLI-lMY-19" value="User Feed Service" style="rounded=1;whiteSpace=wrap;html=1;fillColor=#dae8fc;strokeColor=#6c8ebf;" vertex="1" parent="1">
          <mxGeometry x="120" y="400" width="120" height="60" as="geometry" />
        </mxCell>
        <mxCell id="3q1tgg9aHf6s9xLI-lMY-20" value="Posts Service" style="rounded=1;whiteSpace=wrap;html=1;fillColor=#dae8fc;strokeColor=#6c8ebf;" vertex="1" parent="1">
          <mxGeometry x="120" y="490" width="120" height="60" as="geometry" />
        </mxCell>
        <mxCell id="3q1tgg9aHf6s9xLI-lMY-21" value="Likes Service" style="rounded=1;whiteSpace=wrap;html=1;fillColor=#dae8fc;strokeColor=#6c8ebf;" vertex="1" parent="1">
          <mxGeometry x="520" y="490" width="120" height="60" as="geometry" />
        </mxCell>
        <mxCell id="3q1tgg9aHf6s9xLI-lMY-22" value="Followers Service" style="rounded=1;whiteSpace=wrap;html=1;fillColor=#dae8fc;strokeColor=#6c8ebf;" vertex="1" parent="1">
          <mxGeometry x="320" y="400" width="120" height="60" as="geometry" />
        </mxCell>
        <mxCell id="3q1tgg9aHf6s9xLI-lMY-23" value="Media Hosting Service" style="rounded=1;whiteSpace=wrap;html=1;fillColor=#dae8fc;strokeColor=#6c8ebf;" vertex="1" parent="1">
          <mxGeometry x="520" y="400" width="120" height="60" as="geometry" />
        </mxCell>
        <mxCell id="3q1tgg9aHf6s9xLI-lMY-24" value="Cassandra" style="rounded=0;whiteSpace=wrap;html=1;fillColor=#fff2cc;strokeColor=#d6b656;" vertex="1" parent="1">
          <mxGeometry x="230" y="620" width="90" height="60" as="geometry" />
        </mxCell>
        <mxCell id="3q1tgg9aHf6s9xLI-lMY-25" value="Neo4j" style="rounded=0;whiteSpace=wrap;html=1;fillColor=#fff2cc;strokeColor=#d6b656;" vertex="1" parent="1">
          <mxGeometry x="440" y="620" width="95" height="60" as="geometry" />
        </mxCell>
        <mxCell id="3q1tgg9aHf6s9xLI-lMY-26" value="" style="endArrow=none;dashed=1;html=1;rounded=0;" edge="1" parent="1">
          <mxGeometry width="50" height="50" relative="1" as="geometry">
            <mxPoint x="104" y="570" as="sourcePoint" />
            <mxPoint x="724" y="570" as="targetPoint" />
          </mxGeometry>
        </mxCell>
        <mxCell id="3q1tgg9aHf6s9xLI-lMY-27" value="&lt;font style=&quot;font-size: 15px&quot;&gt;Microservices&lt;/font&gt;" style="text;html=1;strokeColor=none;fillColor=none;align=center;verticalAlign=middle;whiteSpace=wrap;rounded=0;strokeWidth=1;" vertex="1" parent="1">
          <mxGeometry x="20" y="470" width="60" height="30" as="geometry" />
        </mxCell>
        <mxCell id="3q1tgg9aHf6s9xLI-lMY-28" value="&lt;font style=&quot;font-size: 15px&quot;&gt;Data Storage&lt;/font&gt;" style="text;html=1;strokeColor=none;fillColor=none;align=center;verticalAlign=middle;whiteSpace=wrap;rounded=0;" vertex="1" parent="1">
          <mxGeometry y="640" width="100" height="30" as="geometry" />
        </mxCell>
      </root>
    </mxGraphModel>
  </diagram>
</mxfile>
